<svg width="1200" height="760" viewBox="0 0 1200 760" fill="none" xmlns="http://www.w3.org/2000/svg">
  <rect width="1200" height="760" rx="32" fill="#FFF9F2"/>
  <rect x="48" y="48" width="1104" height="664" rx="24" fill="white" stroke="#F2E5D9" stroke-width="2"/>
  <rect x="84" y="96" width="260" height="132" rx="18" fill="#FFF2E2"/>
  <rect x="388" y="96" width="240" height="132" rx="18" fill="#FFF8EF" stroke="#F2E5D9"/>
  <rect x="676" y="96" width="440" height="132" rx="18" fill="#FFF8EF" stroke="#F2E5D9"/>
  <rect x="84" y="280" width="1032" height="324" rx="24" fill="#FFFCF8" stroke="#F2E5D9"/>
  <path d="M178 540C234 494 278 422 348 402C412 384 452 450 516 430C584 408 608 314 676 310C742 306 766 412 834 432C900 452 962 430 1034 348" stroke="#FFB059" stroke-width="16" stroke-linecap="round"/>
  <rect x="140" y="330" width="90" height="176" rx="16" fill="#FFD8A8"/>
  <rect x="274" y="360" width="90" height="146" rx="16" fill="#FFB059"/>
  <rect x="408" y="300" width="90" height="206" rx="16" fill="#F28C28"/>
  <rect x="542" y="356" width="90" height="150" rx="16" fill="#FFD8A8"/>
  <rect x="676" y="322" width="90" height="184" rx="16" fill="#FFB059"/>
  <text x="108" y="144" fill="#7A4200" font-family="Segoe UI, Arial, sans-serif" font-size="38" font-weight="700">Lift</text>
  <text x="408" y="144" fill="#7A4200" font-family="Segoe UI, Arial, sans-serif" font-size="34" font-weight="700">Significance</text>
  <text x="706" y="144" fill="#7A4200" font-family="Segoe UI, Arial, sans-serif" font-size="32" font-weight="700">Experiment Readout</text>
</svg>